<svg xmlns="http://www.w3.org/2000/svg" width="768" height="768" viewBox="0 0 768 768">
  <g stroke="#999" stroke-width="5" fill="none" stroke-dasharray="10 5">
    <circle cx="160" cy="130" r="50"/>
    <g stroke-linecap="round">
      <line x1="160" y1="55" x2="160" y2="35"/><line x1="160" y1="205" x2="160" y2="225"/>
      <line x1="85" y1="130" x2="65" y2="130"/><line x1="235" y1="130" x2="255" y2="130"/>
      <line x1="107" y1="77" x2="92" y2="62"/><line x1="213" y1="77" x2="228" y2="62"/>
      <line x1="107" y1="183" x2="92" y2="198"/><line x1="213" y1="183" x2="228" y2="198"/>
    </g>
    <circle cx="147" cy="122" r="5" fill="#BBB"/><circle cx="173" cy="122" r="5" fill="#BBB"/>
    <path d="M145 148 Q160 160 175 148" stroke="#BBB" stroke-width="4" stroke-linecap="round"/>
  </g>
  <g stroke="#999" stroke-width="5" fill="none" stroke-dasharray="10 5">
    <rect x="110" y="520" width="45" height="110" rx="4"/>
    <circle cx="132" cy="485" r="65"/>
  </g>
  <g stroke="#999" stroke-width="4" fill="none" stroke-dasharray="8 4">
    <circle cx="280" cy="580" r="14"/>
    <ellipse cx="280" cy="555" rx="14" ry="22"/><ellipse cx="280" cy="605" rx="14" ry="22"/>
    <ellipse cx="255" cy="580" rx="22" ry="14"/><ellipse cx="305" cy="580" rx="22" ry="14"/>
  </g>
  <g stroke="#999" stroke-width="5" fill="none" stroke-dasharray="10 5" stroke-linejoin="round">
    <rect x="470" y="430" width="200" height="160" rx="4"/>
    <polygon points="570,340 450,430 690,430"/>
    <rect x="530" y="500" width="45" height="90"/>
    <rect x="590" y="470" width="40" height="40"/><rect x="650" y="470" width="40" height="40"/>
  </g>
  <g stroke="#999" stroke-width="4" fill="none" stroke-dasharray="8 4">
    <circle cx="560" cy="620" r="35"/>
    <polygon points="535,595 525,565 548,582"/><polygon points="585,595 595,565 572,582"/>
    <circle cx="548" cy="615" r="5"/><circle cx="572" cy="615" r="5"/>
    <ellipse cx="560" cy="630" rx="7" ry="5"/>
  </g>
  <g stroke="#999" stroke-width="4" fill="none" stroke-dasharray="8 4">
    <polygon points="650,120 660,145 688,145 666,160 674,186 650,170 626,186 634,160 612,145 640,145"/>
    <path d="M700 200 Q670 200 660 230 Q650 260 700 260 Q680 240 688 215 Q695 205 700 200"/>
  </g>
</svg>
