<svg xmlns="http://www.w3.org/2000/svg" width="768" height="768" viewBox="0 0 768 768">
  <g stroke="#999" stroke-width="7" fill="none" stroke-dasharray="14 7" stroke-linecap="round">
    <circle cx="384" cy="150" r="95"/>
    <line x1="384" y1="30" x2="384" y2="10"/><line x1="384" y1="270" x2="384" y2="290"/>
    <line x1="264" y1="150" x2="244" y2="150"/><line x1="504" y1="150" x2="524" y2="150"/>
    <line x1="299" y1="85" x2="284" y2="70"/><line x1="469" y1="85" x2="484" y2="70"/>
    <line x1="299" y1="215" x2="284" y2="230"/><line x1="469" y1="215" x2="484" y2="230"/>
    <circle cx="358" cy="135" r="10" fill="#BBB"/><circle cx="410" cy="135" r="10" fill="#BBB"/>
    <path d="M350 175 Q384 200 418 175" stroke-width="5"/>
  </g>
  <g stroke="#999" stroke-width="7" fill="none" stroke-dasharray="14 7">
    <ellipse cx="384" cy="280" rx="130" ry="70"/><ellipse cx="480" cy="265" rx="100" ry="60"/><ellipse cx="288" cy="265" rx="90" ry="55"/>
  </g>
  <g stroke="#999" stroke-width="6" fill="none" stroke-dasharray="12 6" stroke-linecap="round">
    <path d="M80 380 Q384 180 688 380"/><path d="M120 380 Q384 230 648 380"/><path d="M160 380 Q384 280 608 380"/>
  </g>
  <g stroke="#999" stroke-width="7" fill="none" stroke-dasharray="14 7">
    <rect x="120" y="500" width="65" height="140" rx="6"/>
    <circle cx="152" cy="455" r="90"/>
  </g>
  <g stroke="#999" stroke-width="7" fill="none" stroke-dasharray="14 7" stroke-linejoin="round">
    <rect x="480" y="480" width="220" height="160" rx="8"/>
    <polygon points="590,390 450,480 730,480"/>
    <rect x="555" y="560" width="55" height="80"/>
  </g>
  <line x1="40" y1="640" x2="728" y2="640" stroke="#999" stroke-width="6" stroke-dasharray="14 7"/>
</svg>
